HIERARCHY
ROOT Hips
{
  OFFSET 5.80788e-005 67.184 3.4734
  CHANNELS 6 Xposition Yposition Zposition Zrotation Xrotation Yrotation
  JOINT Chest
  {
    OFFSET 0 8.7983 -4.7612
    CHANNELS 3 Zrotation Xrotation Yrotation
    JOINT Chest2
    {
      OFFSET 0 8.0291 0.4195
      CHANNELS 3 Zrotation Xrotation Yrotation
      JOINT Chest3
      {
        OFFSET 0 9.9351 -2.2114
        CHANNELS 3 Zrotation Xrotation Yrotation
        JOINT Neck
        {
          OFFSET 0 22.3885 -0.4656
          CHANNELS 3 Zrotation Xrotation Yrotation
          JOINT Head
          {
            OFFSET -0.0001 12.643 3.4389
            CHANNELS 3 Zrotation Xrotation Yrotation
            End Site
            {
              OFFSET 0.0001 17.6655 0.5274
            }
          }
        }
        JOINT LeftCollar
        {
          OFFSET 2.2603 21.606 7.4023
          CHANNELS 3 Zrotation Xrotation Yrotation
          JOINT LeftShoulder
          {
            OFFSET 13.5163 -1.1332 -5.0146
            CHANNELS 3 Zrotation Xrotation Yrotation
            JOINT LeftElbow
            {
              OFFSET -0.0995 -28.05 -0.2431
              CHANNELS 3 Zrotation Xrotation Yrotation
              JOINT LeftWrist
              {
                OFFSET 0.0679 -23.3996 -0.1402
                CHANNELS 3 Zrotation Xrotation Yrotation
                JOINT LeftFinger1
                {
                  OFFSET 0.7932 -9.069 2.5189
                  CHANNELS 3 Zrotation Xrotation Yrotation
                  JOINT LeftFinger11
                  {
                    OFFSET -0.8272 -3.3923 0.5977
                    CHANNELS 3 Zrotation Xrotation Yrotation
                    JOINT LeftFinger12
                    {
                      OFFSET -0.5649 -2.3158 0.4082
                      CHANNELS 3 Zrotation Xrotation Yrotation
                      End Site
                      {
                        OFFSET -0.4919 -1.6479 0.2673
                      }
                    }
                  }
                }
                JOINT LeftFinger2
                {
                  OFFSET 0.9159 -9.2044 0.2193
                  CHANNELS 3 Zrotation Xrotation Yrotation
                  JOINT LeftFinger21
                  {
                    OFFSET 0.0117 -4.1944 -0.0248
                    CHANNELS 3 Zrotation Xrotation Yrotation
                    JOINT LeftFinger22
                    {
                      OFFSET 0.0071 -2.3249 -0.0142
                      CHANNELS 3 Zrotation Xrotation Yrotation
                      End Site
                      {
                        OFFSET -0.1475 -2.0882 0.0028
                      }
                    }
                  }
                }
                JOINT LeftFinger3
                {
                  OFFSET 0.6113 -8.7231 -2.0637
                  CHANNELS 3 Zrotation Xrotation Yrotation
                  JOINT LeftFinger31
                  {
                    OFFSET -0.1927 -3.8059 -0.2383
                    CHANNELS 3 Zrotation Xrotation Yrotation
                    JOINT LeftFinger32
                    {
                      OFFSET -0.1091 -2.1688 -0.1362
                      CHANNELS 3 Zrotation Xrotation Yrotation
                      End Site
                      {
                        OFFSET -0.2358 -1.9176 -0.0906
                      }
                    }
                  }
                }
                JOINT LeftFinger4
                {
                  OFFSET -0.6151 -8.0947 -3.5641
                  CHANNELS 3 Zrotation Xrotation Yrotation
                  JOINT LeftFinger41
                  {
                    OFFSET -0.4882 -2.341 -0.6462
                    CHANNELS 3 Zrotation Xrotation Yrotation
                    JOINT LeftFinger42
                    {
                      OFFSET -0.3575 -1.7167 -0.4742
                      CHANNELS 3 Zrotation Xrotation Yrotation
                      End Site
                      {
                        OFFSET -0.4187 -1.5237 -0.3496
                      }
                    }
                  }
                }
                JOINT LeftFinger0
                {
                  OFFSET -1.42 -1.8761 1.4223
                  CHANNELS 3 Zrotation Xrotation Yrotation
                  JOINT LeftFinger01
                  {
                    OFFSET -1.1471 -3.4929 2.6334
                    CHANNELS 3 Zrotation Xrotation Yrotation
                    JOINT LeftFinger02
                    {
                      OFFSET -0.823 -2.3 1.6571
                      CHANNELS 3 Zrotation Xrotation Yrotation
                      End Site
                      {
                        OFFSET -0.5822 -1.6914 1.1582
                      }
                    }
                  }
                }
              }
            }
          }
        }
        JOINT RightCollar
        {
          OFFSET -2.2603 21.606 7.4023
          CHANNELS 3 Zrotation Xrotation Yrotation
          JOINT RightShoulder
          {
            OFFSET -13.5187 -1.1334 -5.0155
            CHANNELS 3 Zrotation Xrotation Yrotation
            JOINT RightElbow
            {
              OFFSET 0.0994 -28.0499 -0.2431
              CHANNELS 3 Zrotation Xrotation Yrotation
              JOINT RightWrist
              {
                OFFSET -0.0679 -23.3996 -0.1402
                CHANNELS 3 Zrotation Xrotation Yrotation
                JOINT RightFinger1
                {
                  OFFSET -0.7932 -9.0691 2.5189
                  CHANNELS 3 Zrotation Xrotation Yrotation
                  JOINT RightFinger11
                  {
                    OFFSET 0.8272 -3.3923 0.5977
                    CHANNELS 3 Zrotation Xrotation Yrotation
                    JOINT RightFinger12
                    {
                      OFFSET 0.565 -2.3158 0.4082
                      CHANNELS 3 Zrotation Xrotation Yrotation
                      End Site
                      {
                        OFFSET 0.4919 -1.6479 0.2673
                      }
                    }
                  }
                }
                JOINT RightFinger2
                {
                  OFFSET -0.916 -9.2044 0.2193
                  CHANNELS 3 Zrotation Xrotation Yrotation
                  JOINT RightFinger21
                  {
                    OFFSET -0.0117 -4.1944 -0.0248
                    CHANNELS 3 Zrotation Xrotation Yrotation
                    JOINT RightFinger22
                    {
                      OFFSET -0.0071 -2.3249 -0.0142
                      CHANNELS 3 Zrotation Xrotation Yrotation
                      End Site
                      {
                        OFFSET 0.1475 -2.0882 0.0028
                      }
                    }
                  }
                }
                JOINT RightFinger3
                {
                  OFFSET -0.6113 -8.7231 -2.0637
                  CHANNELS 3 Zrotation Xrotation Yrotation
                  JOINT RightFinger31
                  {
                    OFFSET 0.1927 -3.8059 -0.2383
                    CHANNELS 3 Zrotation Xrotation Yrotation
                    JOINT RightFinger32
                    {
                      OFFSET 0.1091 -2.1688 -0.1362
                      CHANNELS 3 Zrotation Xrotation Yrotation
                      End Site
                      {
                        OFFSET 0.2358 -1.9176 -0.0906
                      }
                    }
                  }
                }
                JOINT RightFinger4
                {
                  OFFSET 0.6151 -8.0947 -3.564
                  CHANNELS 3 Zrotation Xrotation Yrotation
                  JOINT RightFinger41
                  {
                    OFFSET 0.4882 -2.341 -0.6462
                    CHANNELS 3 Zrotation Xrotation Yrotation
                    JOINT RightFinger42
                    {
                      OFFSET 0.3574 -1.7166 -0.4742
                      CHANNELS 3 Zrotation Xrotation Yrotation
                      End Site
                      {
                        OFFSET 0.4187 -1.5237 -0.3496
                      }
                    }
                  }
                }
                JOINT RightFinger0
                {
                  OFFSET 1.4199 -1.8761 1.4221
                  CHANNELS 3 Zrotation Xrotation Yrotation
                  JOINT RightFinger01
                  {
                    OFFSET 1.1472 -3.4929 2.6336
                    CHANNELS 3 Zrotation Xrotation Yrotation
                    JOINT RightFinger02
                    {
                      OFFSET 0.8229 -2.3 1.6571
                      CHANNELS 3 Zrotation Xrotation Yrotation
                      End Site
                      {
                        OFFSET 0.5822 -1.6914 1.1582
                      }
                    }
                  }
                }
              }
            }
          }
        }
      }
    }
  }
  JOINT RightHip
  {
    OFFSET -9.412 3.9771 -0.7758
    CHANNELS 3 Zrotation Xrotation Yrotation
    JOINT RightKnee
    {
      OFFSET -0.7531 -40.938 0
      CHANNELS 3 Zrotation Xrotation Yrotation
      JOINT RightAnkle
      {
        OFFSET 0 -40.1986 0
        CHANNELS 3 Zrotation Xrotation Yrotation
        JOINT RightToe
        {
          OFFSET 0 -4.4182 9.239
          CHANNELS 3 Zrotation Xrotation Yrotation
          End Site
          {
            OFFSET 0 0 6.1981
          }
        }
      }
    }
  }
  JOINT LeftHip
  {
    OFFSET 9.4119 3.9773 -0.7758
    CHANNELS 3 Zrotation Xrotation Yrotation
    JOINT LeftKnee
    {
      OFFSET 0.7532 -40.9383 0
      CHANNELS 3 Zrotation Xrotation Yrotation
      JOINT LeftAnkle
      {
        OFFSET 0 -40.1986 0
        CHANNELS 3 Zrotation Xrotation Yrotation
        JOINT LeftToe
        {
          OFFSET 0 -4.4182 9.239
          CHANNELS 3 Zrotation Xrotation Yrotation
          End Site
          {
            OFFSET 0 0 6.1981
          }
        }
      }
    }
  }
}
MOTION
Frames:	7
Frame Time:	0.0333333
5.80788e-005 67.184 3.4734 0 0 -0 0 0 -0 0 0 -0 0 0 -0 0 0 -0.00430691 0 0 -0 0 0 -12.5057 88.1196 14.2451 10.6914 -0.00159397 -0.00239328 0.00073872 -8.42824e-005 7.03715e-005 -7.12335e-007 -0 -3.97569e-016 -0 -5.96354e-016 0 -0 -6.95746e-016 0 1.59028e-015 -0 -3.97569e-016 -0 -0.0128176 0.00232603 8.68285e-005 -3.97569e-016 -5.96354e-016 -0 -0 -3.97569e-016 -0 -0.0160549 0.00299631 0.000857507 -1.27719e-014 2.38542e-015 1.59028e-015 -0 -3.97569e-016 -0 -0.0125652 0.00311565 0.00282177 -1.29707e-014 1.98785e-015 -3.18055e-015 -0 -3.97569e-016 -0 -5.96354e-016 0 -0 -6.95746e-016 0 1.59028e-015 -0.865631 0.165885 7.03429 -88.0329 10.2057 -10.5567 0.00156613 -0.00248724 -0.000789564 6.50541e-005 3.88177e-005 1.30299e-005 -1.98785e-016 0 -0 -2.98177e-016 0 1.59028e-015 -1.98785e-016 0 1.59028e-015 -1.98785e-016 0 -0 0.0129678 0.00231897 -8.49789e-005 -6.95746e-016 -3.97569e-016 -3.18055e-015 -1.98785e-016 0 -0 0.0163386 0.00303521 -0.000874321 -0 0 1.59028e-015 -1.98785e-016 0 -0 0.0145904 0.00368177 -0.00326532 9.93923e-017 3.97569e-016 3.18055e-015 -1.98785e-016 0 -0 -2.98177e-016 0 1.59028e-015 -1.98785e-016 0 1.59028e-015 3.42485 1.36937 -0.0640303 0.000136572 0.69354 0.00145564 -3.42573 -2.06297 -0.0607933 -3.19502e-024 0 -1.48106e-024 -3.42498 1.36123 0.0639712 -6.769e-005 0.712612 -0.0012277 3.42582 -2.07388 0.0612819 2.55305e-023 0 -2.31416e-026 
39.8634 -5.60944 49.1182 -1.35639e-007 78.9991 1.62009e-007 -0.304427 0.671672 -0.215631 -0.606383 1.34446 -0.427731 -0.606382 1.34447 -0.427731 -0.00315331 1.99485 -44.0016 -0.0581393 -15.3423 -26.0165 -7.85111 0.498188 -18.0938 60.5739 4.2223 62.4155 45.1098 -50.0961 24.5113 15.8395 -32.1579 25.7489 7.53169e-006 9.22452e-006 3.43571e-006 3.20274e-006 6.01609e-006 -2.75683e-006 -7.1145e-006 8.71921e-006 5.69848e-006 7.53169e-006 9.22452e-006 3.43571e-006 -0.0128281 0.00233321 7.68253e-005 1.59122e-006 3.35716e-007 -2.29103e-006 7.53169e-006 9.22452e-006 3.43571e-006 -0.0160424 0.0029893 0.000855817 2.47499e-006 1.10662e-005 -4.39723e-006 7.53169e-006 9.22452e-006 3.43571e-006 -0.0125667 0.00311831 0.00281901 -5.4645e-006 9.89442e-006 2.76657e-006 7.53169e-006 9.22452e-006 3.43571e-006 3.20274e-006 6.01609e-006 -2.75683e-006 -7.1145e-006 8.71921e-006 5.69848e-006 49.0651 -10.3859 -2.93551 -54.9878 -8.98969 -55.408 -42.0089 -41.376 -26.2285 3.54609 -32.3886 -4.29911 -9.45584e-008 8.45791e-007 -1.06147e-006 -5.67351e-008 -3.35162e-009 -6.36879e-007 -7.56467e-008 4.25548e-007 -8.49172e-007 -9.45584e-008 8.45791e-007 -1.06147e-006 0.0129603 0.00231736 -8.67875e-005 -3.67732e-007 8.31624e-007 6.73192e-007 -9.45584e-008 8.45791e-007 -1.06147e-006 0.0163392 0.00303452 -0.00087316 1.14733e-007 1.52414e-006 1.11778e-006 -9.45584e-008 8.45791e-007 -1.06147e-006 0.0145665 0.00367565 -0.00325932 -1.14301e-015 1.27498e-006 1.59028e-015 -9.45584e-008 8.45791e-007 -1.06147e-006 -5.67351e-008 -3.35162e-009 -6.36879e-007 -7.56467e-008 4.25548e-007 -8.49172e-007 -4.89425 4.63705 -43.4079 7.20014 20.9879 -21.8099 -3.05967 40.9595 -3.75528 9.70418e-006 -7.2089e-006 8.76501e-006 2.64922 10.1359 46.2926 -4.83167 7.35639 20.621 5.74742 38.219 -4.92356 -1.36474e-005 -9.71053e-006 1.69859e-006 
39.8629 -5.6462 49.1463 -1.18359e-007 78.6659 1.44864e-007 -0.323076 0.934019 -0.211877 -0.64282 1.8692 -0.418564 -0.642822 1.86921 -0.418566 -0.00296475 1.38421 -44.0016 -0.331168 -15.531 -26.6507 -7.37951 1.47663 -18.1905 60.888 3.96769 62.39 45.0923 -50.0834 24.4988 17.7165 -31.2832 27.137 -7.95139e-016 -6.36111e-015 -2.38542e-015 -7.95139e-016 -3.18055e-015 7.95139e-016 -7.95139e-016 -3.18055e-015 -7.95139e-016 -7.95139e-016 -6.36111e-015 -2.38542e-015 -0.0128177 0.00232412 8.63732e-005 -8.82781e-032 3.18055e-015 1.59028e-015 -7.95139e-016 -6.36111e-015 -2.38542e-015 -0.0160568 0.0029892 0.000859929 7.6828e-006 -5.53186e-007 -3.45144e-007 -7.95139e-016 -6.36111e-015 -2.38542e-015 -0.0125472 0.0031126 0.00281872 -8.82781e-032 3.18055e-015 1.59028e-015 -7.95139e-016 -6.36111e-015 -2.38542e-015 -7.95139e-016 -3.18055e-015 7.95139e-016 -7.95139e-016 -3.18055e-015 -7.95139e-016 48.8634 -10.7492 -1.40224 -55.0849 -8.01836 -55.0915 -41.3873 -41.1997 -25.7217 2.11328 -32.39 -5.55301 1.2921e-015 7.95139e-016 3.97569e-016 5.96354e-016 0 3.97569e-016 1.14301e-015 -7.95139e-016 3.97569e-016 1.2921e-015 7.95139e-016 3.97569e-016 0.0129504 0.00231647 -8.60057e-005 -8.44835e-016 1.59028e-015 -0 1.2921e-015 7.95139e-016 3.97569e-016 0.0163328 0.00303157 -0.000874447 -6.95746e-016 0 -0 1.2921e-015 7.95139e-016 3.97569e-016 0.0145648 0.00367412 -0.0032582 -4.96962e-017 -1.59028e-015 -3.97569e-016 1.2921e-015 7.95139e-016 3.97569e-016 5.96354e-016 0 3.97569e-016 1.14301e-015 -7.95139e-016 3.97569e-016 -5.07827 5.23478 -44.5062 7.19905 20.974 -21.8513 -4.40261 40.9232 -2.15218 1.1124e-005 4.78039e-006 -1.2294e-005 2.56257 10.7118 46.4741 -5.00531 6.90876 20.6297 6.09752 38.4079 -5.21074 -1.08944e-005 6.67114e-007 6.38328e-006 
39.8625 -5.68279 49.1747 5.53254e-008 78.3326 -3.23128e-008 -0.341761 1.19926 -0.208692 -0.679377 2.39976 -0.410359 -0.679374 2.39974 -0.410357 -0.0029109 0.773734 -44.0016 -0.606749 -15.7168 -27.2869 -6.90543 2.45609 -18.2955 61.2021 3.71343 62.366 45.0746 -50.0709 24.4865 19.5589 -30.3667 28.4841 7.95139e-016 3.18055e-015 -1.19271e-015 -7.95139e-016 0 3.97569e-016 -7.95139e-016 0 3.97569e-016 7.95139e-016 3.18055e-015 -1.19271e-015 -0.0128065 0.00232312 8.57685e-005 -3.07745e-006 -3.81563e-006 1.51749e-006 7.95139e-016 3.18055e-015 -1.19271e-015 -0.0160586 0.00299282 0.000854952 7.95139e-016 -1.27222e-014 1.98785e-015 7.95139e-016 3.18055e-015 -1.19271e-015 -0.0125913 0.00313551 0.00282445 7.95139e-016 -3.18055e-015 1.19271e-015 7.95139e-016 3.18055e-015 -1.19271e-015 -7.95139e-016 0 3.97569e-016 -7.95139e-016 0 3.97569e-016 48.6709 -11.118 0.13339 -55.1918 -7.05906 -54.7742 -40.7708 -41.0109 -25.2091 0.677955 -32.3649 -6.80898 -8.45943e-008 4.20499e-007 -8.48355e-007 -6.34457e-008 4.15929e-007 -6.36266e-007 -3.51884e-007 -9.40509e-008 -1.2819e-006 -8.45943e-008 4.20499e-007 -8.48355e-007 0.0129474 0.00231358 -8.622e-005 4.22852e-008 4.34523e-007 4.24179e-007 -8.45943e-008 4.20499e-007 -8.48355e-007 0.0163335 0.00303474 -0.000874968 2.11406e-008 8.5296e-007 2.1209e-007 -8.45943e-008 4.20499e-007 -8.48355e-007 0.0145836 0.0036788 -0.00326273 6.34136e-008 8.54497e-007 6.36268e-007 -8.45943e-008 4.20499e-007 -8.48355e-007 -6.34457e-008 4.15929e-007 -6.36266e-007 -3.51884e-007 -9.40509e-008 -1.2819e-006 -5.25167 5.83792 -45.6057 7.19907 20.9605 -21.8924 -5.74453 40.8576 -0.549447 6.71551e-006 8.44733e-007 -4.68419e-006 2.60979 11.1539 46.6382 -5.17355 6.84051 20.6464 6.36285 38.4192 -5.47324 1.18861e-007 -2.13493e-006 2.27974e-006 
39.8621 -5.71921 49.2032 0 77.9993 -0 -0.360521 1.46717 -0.205734 -0.716123 2.93563 -0.402425 -0.71612 2.9356 -0.402423 -0.00277531 0.162726 -44.0016 -0.884822 -15.8997 -27.9248 -6.42845 3.43563 -18.4088 61.516 3.45803 62.3434 45.0572 -50.0579 24.4738 21.3656 -29.4102 29.7889 -9.1581e-006 7.72298e-006 1.48348e-006 0 0 -7.95139e-016 9.1581e-006 -7.72298e-006 -1.48348e-006 -9.1581e-006 7.72298e-006 1.48348e-006 -0.0127973 0.00232092 8.28535e-005 7.95139e-016 3.18055e-015 -3.97569e-016 -9.1581e-006 7.72298e-006 1.48348e-006 -0.0160253 0.00298812 0.000850327 4.41391e-032 3.18055e-015 -7.95139e-016 -9.1581e-006 7.72298e-006 1.48348e-006 -0.0125675 0.00312476 0.00282002 1.32417e-031 3.18055e-015 -2.38542e-015 -9.1581e-006 7.72298e-006 1.48348e-006 0 0 -7.95139e-016 9.1581e-006 -7.72298e-006 -1.48348e-006 48.4883 -11.4922 1.67153 -55.295 -6.07301 -54.4541 -40.1547 -40.8349 -24.7201 -0.75836 -32.3131 -8.06558 -5.39104e-007 1.60708e-006 1.09221e-006 6.05839e-007 -7.47423e-007 -4.56251e-007 -8.44835e-016 -2.38542e-015 7.95139e-016 -5.39104e-007 1.60708e-006 1.09221e-006 0.0129522 0.00231548 -8.75972e-005 1.11194e-007 6.52652e-009 1.05993e-006 -5.39104e-007 1.60708e-006 1.09221e-006 0.0163489 0.00303689 -0.000874702 -8.44835e-016 0 3.97569e-016 -5.39104e-007 1.60708e-006 1.09221e-006 0.0145769 0.00367402 -0.00326059 -4.96962e-017 -1.59028e-015 -3.97569e-016 -5.39104e-007 1.60708e-006 1.09221e-006 6.05839e-007 -7.47423e-007 -4.56251e-007 -8.44835e-016 -2.38542e-015 7.95139e-016 -5.41406 6.44395 -46.7065 7.1985 20.9485 -21.9333 -7.08342 40.7629 1.051 1.10455e-005 9.84004e-006 -1.23711e-005 2.6898 11.5775 46.7969 -5.36012 6.84841 20.6681 6.61966 38.3901 -5.73218 -4.12983e-006 7.75021e-006 4.39412e-006 
39.8618 -5.75546 49.232 2.83325e-007 77.6659 -2.89736e-007 -0.37931 1.73735 -0.202997 -0.752974 3.47597 -0.394748 -0.752975 3.47596 -0.394749 -0.00268266 -0.448382 -44.0017 -1.16537 -16.0797 -28.5644 -5.94847 4.41537 -18.5305 61.8299 3.20162 62.3221 45.0402 -50.0448 24.4604 23.1359 -28.4156 31.0507 -1.98626e-031 -9.54166e-015 -1.19271e-015 3.05783e-006 4.09325e-006 9.44364e-007 -2.20695e-031 6.36111e-015 1.98785e-015 -1.98626e-031 -9.54166e-015 -1.19271e-015 -0.0128236 0.00233032 8.32388e-005 7.95139e-016 0 -3.97569e-016 -1.98626e-031 -9.54166e-015 -1.19271e-015 -0.0160456 0.00299779 0.000859655 -8.40172e-008 -3.45732e-007 3.75184e-006 -1.98626e-031 -9.54166e-015 -1.19271e-015 -0.0125846 0.00312805 0.0028234 2.92901e-006 2.30851e-006 7.81914e-006 -1.98626e-031 -9.54166e-015 -1.19271e-015 3.05783e-006 4.09325e-006 9.44364e-007 -2.20695e-031 6.36111e-015 1.98785e-015 48.3156 -11.8713 3.21138 -55.4027 -5.08193 -54.1324 -39.5407 -40.6577 -24.2376 -2.19428 -32.2346 -9.32136 -9.33076e-008 4.21489e-007 -8.47523e-007 -9.33076e-008 -4.33693e-007 -8.47523e-007 -6.99807e-008 -4.92576e-010 -6.35642e-007 -9.33076e-008 4.21489e-007 -8.47523e-007 0.012943 0.00231411 -8.69481e-005 3.53591e-007 1.16068e-008 -6.80804e-007 -9.33076e-008 4.21489e-007 -8.47523e-007 0.0163297 0.00303263 -0.000874412 2.60321e-007 7.55572e-009 -1.52833e-006 -9.33076e-008 4.21489e-007 -8.47523e-007 0.0145755 0.00367624 -0.00326092 -9.32643e-008 4.17069e-007 -8.47526e-007 -9.33076e-008 4.21489e-007 -8.47523e-007 -9.33076e-008 -4.33693e-007 -8.47523e-007 -6.99807e-008 -4.92576e-010 -6.35642e-007 -5.56559 7.05297 -47.8084 7.19781 20.9385 -21.9742 -8.41713 40.6387 2.64703 -1.08715e-005 -4.96443e-006 1.51392e-005 2.84977 11.9219 46.9431 -5.54117 7.0824 20.6961 6.82309 38.2552 -5.97464 8.92184e-007 -4.63791e-006 -3.38155e-006 
39.8615 -5.79153 49.261 -3.96646e-008 77.3325 8.71517e-008 -0.39811 2.00941 -0.200492 -0.789909 4.02022 -0.387358 -0.789907 4.02018 -0.387357 -0.00254634 -1.0597 -44.0017 -1.44833 -16.2568 -29.2058 -5.46523 5.39485 -18.6609 62.1436 2.94618 62.3022 45.0228 -50.032 24.4478 24.8694 -27.3849 32.2688 -7.95139e-016 3.18055e-015 3.18055e-015 -1.07972e-005 2.91404e-006 5.79619e-006 1.59028e-015 -6.36111e-015 -1.98785e-015 -7.95139e-016 3.18055e-015 3.18055e-015 -0.0128466 0.00231256 8.95301e-005 7.95139e-016 6.36111e-015 -0 -7.95139e-016 3.18055e-015 3.18055e-015 -0.016058 0.00298788 0.000858894 -1.59028e-015 3.18055e-015 -1.19271e-015 -7.95139e-016 3.18055e-015 3.18055e-015 -0.0125696 0.00309572 0.00281876 -1.59028e-015 3.18055e-015 7.95139e-016 -7.95139e-016 3.18055e-015 3.18055e-015 -1.07972e-005 2.91404e-006 5.79619e-006 1.59028e-015 -6.36111e-015 -1.98785e-015 48.1532 -12.2549 4.75263 -55.5281 -4.13134 -53.8104 -38.9379 -40.4506 -23.7306 -3.6282 -32.1294 -10.5748 -7.95139e-016 -7.95139e-016 -7.95139e-016 2.98177e-016 -7.95139e-016 -3.97569e-016 1.98785e-016 -7.95139e-016 -0 -7.95139e-016 -7.95139e-016 -7.95139e-016 0.0129613 0.00231921 -8.65809e-005 3.47873e-016 7.95139e-016 -0 -7.95139e-016 -7.95139e-016 -7.95139e-016 0.0163323 0.00303287 -0.000873371 1.49089e-016 0 3.97569e-016 -7.95139e-016 -7.95139e-016 -7.95139e-016 0.0145822 0.00368282 -0.003263 -1.63997e-015 0 -1.19271e-015 -7.95139e-016 -7.95139e-016 -7.95139e-016 2.98177e-016 -7.95139e-016 -3.97569e-016 1.98785e-016 -7.95139e-016 -0 -5.70583 7.66477 -48.9115 7.19693 20.9295 -22.015 -9.74408 40.4858 4.23684 3.47007e-007 -1.71876e-006 6.0564e-006 2.80617 12.4424 47.1216 -5.70594 6.78228 20.7025 7.13408 38.3732 -6.24969 1.25491e-005 7.41758e-006 -5.82263e-007 
